<?xml version="1.0" standalone="no"?>
<!DOCTYPE svg PUBLIC "-//W3C//DTD SVG 20010904//EN"
 "http://www.w3.org/TR/2001/REC-SVG-20010904/DTD/svg10.dtd">
<svg version="1.0" xmlns="http://www.w3.org/2000/svg"
 width="1024.000000pt" height="1024.000000pt" viewBox="0 0 1024.000000 1024.000000"
 preserveAspectRatio="xMidYMid meet">
<metadata>
Created by potrace 1.14, written by Peter Selinger 2001-2017
</metadata>
<g transform="translate(0.000000,1024.000000) scale(0.100000,-0.100000)"
fill="#000000" stroke="none">
<path d="M4965 9803 c-206 -22 -371 -58 -546 -119 -338 -116 -680 -352 -909
-624 -30 -36 -58 -67 -61 -70 -11 -9 -157 -228 -174 -262 -154 -298 -220 -499
-259 -782 -15 -113 -18 -409 -5 -506 21 -153 40 -248 75 -366 52 -181 121
-334 239 -529 131 -217 199 -370 230 -522 21 -99 20 -226 -1 -290 -14 -41
-188 -372 -345 -656 -27 -48 -49 -89 -49 -91 0 -2 -17 -35 -39 -73 -21 -37
-84 -153 -141 -258 -56 -104 -116 -215 -132 -245 -17 -30 -55 -102 -86 -160
-30 -58 -58 -109 -62 -115 -4 -5 -24 -41 -45 -80 -21 -38 -64 -117 -95 -175
-31 -58 -81 -150 -110 -205 -29 -55 -58 -109 -65 -120 -7 -11 -32 -56 -55
-100 -24 -44 -69 -127 -100 -185 -76 -141 -89 -180 -91 -281 -6 -258 246 -467
506 -418 134 25 239 112 322 267 13 24 36 67 52 95 15 29 49 90 73 137 25 47
57 105 71 130 36 66 206 381 262 485 26 50 60 113 75 140 150 272 190 346 190
349 0 3 17 35 39 73 42 75 61 110 211 388 102 190 119 221 200 369 115 211
133 246 162 306 135 287 160 617 71 960 -8 30 -16 64 -18 75 -25 113 -157 404
-270 590 -98 162 -146 265 -179 379 -28 94 -31 108 -45 208 -9 60 -7 291 2
333 3 11 8 40 12 65 12 77 65 231 110 321 127 256 346 472 596 588 78 36 217
86 264 95 411 78 773 -7 1084 -253 116 -91 216 -207 311 -361 28 -47 68 -100
89 -118 247 -222 633 -103 705 219 29 127 4 232 -88 379 -286 457 -705 778
-1215 929 -105 31 -127 37 -191 47 -19 3 -42 7 -50 9 -15 4 -37 8 -135 21 -55
7 -342 12 -390 7z"/>
<path d="M5080 8099 c-189 -19 -333 -146 -374 -330 -30 -135 -11 -210 109
-424 12 -22 36 -65 52 -95 17 -30 58 -107 93 -170 105 -192 113 -207 237 -435
66 -121 200 -366 298 -545 98 -179 194 -354 213 -390 102 -189 243 -447 252
-460 5 -8 19 -35 31 -60 13 -25 42 -78 66 -118 24 -41 43 -76 43 -78 0 -7 69
-104 109 -154 169 -212 441 -384 748 -474 98 -29 203 -53 254 -60 19 -3 50 -7
69 -10 97 -15 185 -22 421 -30 351 -13 651 -142 884 -380 54 -55 84 -92 167
-206 62 -86 144 -285 173 -422 26 -121 35 -290 21 -408 -22 -194 -90 -386
-191 -544 -106 -165 -244 -301 -410 -403 -86 -53 -212 -113 -236 -113 -8 0
-19 -4 -25 -8 -5 -5 -29 -14 -53 -21 -47 -13 -58 -16 -112 -25 -19 -3 -45 -8
-59 -11 -14 -3 -72 -7 -130 -10 -193 -11 -295 -53 -381 -159 -64 -79 -91 -151
-95 -256 -3 -69 1 -97 20 -151 45 -129 135 -219 263 -265 63 -22 78 -24 218
-19 83 3 168 7 190 10 244 34 478 106 687 211 204 103 359 215 563 409 179
171 389 502 483 765 56 156 105 366 119 515 13 140 6 436 -11 517 -3 13 -8 39
-11 58 -2 19 -7 46 -9 59 -153 747 -696 1362 -1413 1600 -67 22 -132 43 -145
45 -13 3 -53 12 -90 20 -104 23 -212 36 -333 42 -339 14 -352 15 -490 44 -169
35 -301 98 -389 185 -34 33 -70 78 -82 100 -21 41 -72 135 -127 235 -16 30
-33 60 -37 65 -4 6 -28 48 -52 95 -78 146 -152 282 -256 470 -13 25 -40 74
-60 110 -19 36 -70 128 -112 205 -42 77 -96 176 -120 220 -23 44 -91 168 -150
275 -59 107 -183 334 -276 504 -179 328 -216 379 -308 425 -45 23 -126 52
-126 46 0 -2 -12 0 -27 4 -16 3 -57 4 -93 0z"/>
<path d="M998 4255 c-159 -43 -238 -127 -362 -385 -102 -212 -165 -439 -193
-695 -8 -71 -8 -318 0 -395 85 -805 604 -1486 1354 -1776 166 -64 321 -104
503 -129 95 -12 459 -13 530 -1 50 9 100 17 135 23 103 16 327 87 457 144 436
192 786 518 1031 961 97 175 230 341 351 437 73 58 112 81 188 109 l58 22
1322 0 c728 0 1337 2 1353 5 157 26 272 109 337 244 40 84 50 206 24 296 -18
62 -73 156 -109 187 -52 45 -113 82 -165 101 -56 20 -69 20 -1395 21 -947 1
-1367 -2 -1441 -10 -488 -55 -930 -403 -1276 -1009 -142 -247 -291 -402 -507
-525 -127 -73 -302 -134 -448 -155 -74 -11 -277 -14 -327 -5 -24 5 -61 11 -82
14 -139 22 -336 99 -463 182 -362 236 -585 637 -584 1053 0 121 6 179 27 271
9 36 17 72 19 80 10 47 62 174 93 230 91 163 108 221 99 324 -19 217 -192 383
-407 391 -41 1 -96 -3 -122 -10z"/>
</g>
</svg>
