<svg width="85" height="16" viewBox="0 0 85 16" fill="none" xmlns="http://www.w3.org/2000/svg">
<path fill-rule="evenodd" clip-rule="evenodd" d="M8.19149 16.0058C12.7187 16.0058 16.3948 12.4226 16.3948 8.00288C16.3948 3.58312 12.7246 0 8.1974 0C3.67021 0 0 3.58312 0 8.00288C0 12.4226 3.6643 16.0058 8.19149 16.0058ZM8.19723 9.88379L8.19132 9.88955C7.73624 10.3338 7.17477 10.5531 6.50101 10.5531C5.82725 10.5531 5.25988 10.3338 4.79888 9.88955C4.33198 9.43373 4.09557 8.9029 4.09557 8.30283V6.04102H5.47855V8.34322C5.47855 8.59132 5.57312 8.80481 5.76815 8.97791C5.97501 9.16255 6.21732 9.26063 6.50101 9.26063C6.7847 9.26063 7.02702 9.16255 7.20432 8.97214C7.38163 8.77596 7.4821 8.55093 7.49983 8.28552V6.0641H8.87099V8.30283C8.87099 8.57978 8.97146 8.80481 9.1665 8.97791C9.26697 9.07023 9.37335 9.13947 9.49155 9.18563C9.60976 9.23178 9.73978 9.25486 9.88754 9.25486C10.0353 9.25486 10.1712 9.23178 10.2835 9.18563C10.4017 9.1337 10.5081 9.06446 10.6086 8.97791C10.8095 8.79904 10.9041 8.57401 10.9041 8.30283V6.04102H12.2871V8.30283C12.2871 8.89713 12.0507 9.42796 11.5838 9.88955C11.1228 10.3338 10.5613 10.5531 9.89345 10.5531C9.2256 10.5531 8.65822 10.3338 8.20314 9.88955L8.19723 9.88379Z" fill="white"/>
<path d="M26.8614 11.4129L25.3838 6.76812L23.9063 11.4129H21.9382L19.8105 4.59863H21.7195L23.0198 9.18572L24.5505 4.59863H26.1817L27.7124 9.18572L29.0127 4.59863H30.9217L28.794 11.4129H26.8436H26.8614Z" fill="white"/>
<path d="M34.87 11.5804C34.3381 11.5804 33.8475 11.4938 33.3865 11.3265C32.9255 11.1592 32.5355 10.9169 32.1986 10.6053C31.8676 10.2937 31.6076 9.91866 31.4185 9.47438C31.2293 9.03009 31.1348 8.53965 31.1348 7.99151C31.1348 7.50106 31.2234 7.03947 31.4007 6.60095C31.578 6.16244 31.8263 5.78739 32.1454 5.46428C32.4646 5.14693 32.8428 4.89306 33.2861 4.70265C33.7293 4.51224 34.214 4.41992 34.7459 4.41992C35.2778 4.41992 35.7388 4.51224 36.1702 4.69688C36.6017 4.88152 36.9681 5.13539 37.2754 5.46428C37.5828 5.79316 37.8251 6.19129 37.9906 6.64711C38.162 7.10871 38.2447 7.61646 38.2447 8.17037V8.5685H33.0556C33.1147 9.00124 33.3156 9.37052 33.6584 9.68209C34.0012 9.99367 34.4681 10.1495 35.065 10.1495C35.2069 10.1495 35.3664 10.1321 35.5437 10.0975C35.7151 10.0629 35.8865 10.0225 36.0579 9.96482C36.2293 9.90712 36.383 9.83788 36.5367 9.75133C36.6844 9.66478 36.8203 9.57246 36.9326 9.46861L37.7423 10.6226C37.3936 10.9342 36.9681 11.1707 36.4539 11.3265C35.9456 11.4881 35.4137 11.5689 34.8641 11.5689L34.87 11.5804ZM36.4716 7.36258C36.4598 7.20103 36.4244 7.0337 36.3534 6.85483C36.2884 6.67596 36.182 6.5144 36.052 6.37016C35.9161 6.22591 35.7388 6.10474 35.526 6.00665C35.3073 5.90856 35.0532 5.85663 34.7518 5.85663C34.4504 5.85663 34.214 5.90279 34.0071 5.99511C33.8003 6.08743 33.6289 6.2086 33.4929 6.35285C33.357 6.4971 33.2506 6.65865 33.1738 6.83752C33.0969 7.01639 33.0497 7.18949 33.026 7.35681H36.4657L36.4716 7.36258Z" fill="white"/>
<path d="M39.3204 11.4126V1.99609H41.1584V5.46959C41.4362 5.12339 41.7613 4.85798 42.1336 4.68488C42.5059 4.51178 42.896 4.42523 43.3097 4.42523C43.753 4.42523 44.1667 4.50601 44.545 4.67334C44.9232 4.84067 45.2542 5.07723 45.526 5.38881C45.7979 5.70039 46.0166 6.07543 46.1702 6.51971C46.3239 6.964 46.4007 7.46021 46.4007 8.01412C46.4007 8.56804 46.3239 9.08733 46.1643 9.53161C46.0048 9.98167 45.7861 10.3509 45.5142 10.6567C45.2424 10.9568 44.9173 11.1876 44.539 11.3491C44.1608 11.5107 43.753 11.5915 43.3097 11.5915C42.8665 11.5915 42.4882 11.4992 42.1218 11.3261C41.7554 11.1472 41.4303 10.8875 41.1525 10.5471V11.4241H39.3145L39.3204 11.4126ZM41.1584 9.22581C41.3121 9.44507 41.5367 9.62393 41.8381 9.76818C42.1336 9.91243 42.435 9.98744 42.7364 9.98744C43.2743 9.98744 43.7057 9.80857 44.0308 9.44507C44.3558 9.08156 44.5154 8.60266 44.5154 8.01412C44.5154 7.42559 44.3558 6.94092 44.0308 6.57741C43.7057 6.20814 43.2743 6.0235 42.7364 6.0235C42.435 6.0235 42.1395 6.09851 41.8381 6.24853C41.5367 6.39855 41.3121 6.58895 41.1584 6.81398V9.22581Z" fill="white"/>
<path d="M50.0464 11.5803C49.4377 11.5803 48.8585 11.488 48.3029 11.2976C47.7473 11.1072 47.2864 10.8533 46.9199 10.5186L47.7178 9.2608C47.8419 9.3762 48.0015 9.48583 48.1847 9.60122C48.3738 9.71662 48.5748 9.81471 48.7934 9.90703C49.0121 9.99358 49.2308 10.0686 49.4554 10.1205C49.68 10.1724 49.9046 10.1955 50.1291 10.1955C50.531 10.1955 50.8325 10.1263 51.0157 9.99358C51.2048 9.8551 51.2994 9.682 51.2994 9.46275C51.2994 9.27234 51.1989 9.13386 50.9861 9.04154C50.7793 8.94922 50.5251 8.86844 50.2178 8.81074C49.9164 8.74728 49.5795 8.68381 49.219 8.60303C48.8585 8.52225 48.5275 8.41262 48.2202 8.2626C47.9187 8.11258 47.6587 7.90487 47.4518 7.63945C47.245 7.37403 47.1386 7.0163 47.1386 6.56624C47.1386 6.28352 47.2036 6.01233 47.3277 5.75268C47.4518 5.49304 47.641 5.26801 47.8833 5.06606C48.1315 4.86989 48.427 4.70833 48.7816 4.59293C49.1303 4.47176 49.5381 4.41406 50.005 4.41406C50.602 4.41406 51.1339 4.50061 51.6008 4.67371C52.0677 4.84681 52.4755 5.07183 52.8242 5.34302L52.0854 6.57201C51.8726 6.35276 51.583 6.16812 51.2166 6.0181C50.8502 5.86231 50.4483 5.7873 50.0168 5.7873C49.68 5.7873 49.414 5.85077 49.2131 5.98348C49.0121 6.11619 48.9176 6.27775 48.9176 6.46239C48.9176 6.62971 49.018 6.75665 49.219 6.8432C49.4199 6.92975 49.6741 6.99899 49.9873 7.06246C50.2946 7.12593 50.6256 7.19517 50.9861 7.27594C51.3407 7.35672 51.6776 7.47789 51.9849 7.63368C52.2923 7.79524 52.5464 8.00872 52.7533 8.27991C52.9542 8.5511 53.0547 8.92037 53.0547 9.38197C53.0547 9.69354 52.9897 9.98204 52.8537 10.2532C52.7178 10.5244 52.5228 10.7494 52.2686 10.9456C52.0145 11.136 51.6953 11.2918 51.323 11.4014C50.9447 11.5168 50.5192 11.5688 50.0346 11.5688L50.0464 11.5803Z" fill="white"/>
<path d="M57.4048 11.5804C56.8256 11.5804 56.3114 11.4823 55.8563 11.2919C55.4012 11.1015 55.0171 10.8418 54.6979 10.513C54.3788 10.1841 54.1365 9.80903 53.9651 9.37629C53.7937 8.94354 53.7109 8.48195 53.7109 7.99151C53.7109 7.50106 53.7937 7.05678 53.9651 6.62403C54.1365 6.19129 54.3788 5.81047 54.6979 5.48736C55.0171 5.16424 55.4012 4.9046 55.8563 4.70842C56.3114 4.51801 56.8256 4.41992 57.4048 4.41992C57.984 4.41992 58.4982 4.51801 58.9592 4.70842C59.4142 4.89883 59.8043 5.15847 60.1235 5.48736C60.4426 5.81047 60.6849 6.19129 60.8563 6.62403C61.0277 7.05678 61.1105 7.5126 61.1105 7.99151C61.1105 8.47041 61.0277 8.94354 60.8563 9.37629C60.6849 9.80903 60.4426 10.1898 60.1235 10.513C59.8043 10.8361 59.4202 11.0957 58.9592 11.2919C58.5041 11.4823 57.984 11.5804 57.4048 11.5804ZM57.4048 9.98213C57.6944 9.98213 57.9485 9.9302 58.1731 9.82057C58.3977 9.71094 58.5809 9.5667 58.7287 9.38783C58.8764 9.20896 58.9946 9.00124 59.0774 8.75891C59.1601 8.51657 59.2015 8.26269 59.2015 7.99151C59.2015 7.72032 59.1601 7.47798 59.0774 7.23565C58.9946 6.99331 58.8823 6.78559 58.7287 6.60672C58.5809 6.42786 58.3918 6.28361 58.1731 6.17398C57.9544 6.06435 57.6944 6.01242 57.4048 6.01242C57.1152 6.01242 56.8611 6.06435 56.6483 6.17398C56.4296 6.28361 56.2464 6.42786 56.0927 6.60672C55.9391 6.78559 55.8209 6.99331 55.744 7.23565C55.6672 7.47221 55.6258 7.72609 55.6258 7.99151C55.6258 8.25692 55.6613 8.52234 55.744 8.75891C55.8209 9.00124 55.9391 9.20896 56.0927 9.38783C56.2464 9.5667 56.4355 9.71094 56.6483 9.82057C56.867 9.9302 57.1152 9.98213 57.4048 9.98213Z" fill="white"/>
<path d="M62.2051 11.4126V1.99609H64.0431V11.4126H62.2051Z" fill="white" />
<path d="M70.312 11.4128V10.5531C70.0697 10.8185 69.7446 11.0551 69.3368 11.2686C68.929 11.4821 68.4326 11.5859 67.8534 11.5859C67.0851 11.5859 66.5118 11.3955 66.1453 11.0147C65.7789 10.6339 65.5957 10.1088 65.5957 9.43951V4.59277H67.4338V8.72981C67.4338 9.19717 67.552 9.52606 67.7825 9.7107C68.013 9.89533 68.3262 9.98765 68.7222 9.98765C69.0768 9.98765 69.39 9.90687 69.6619 9.74532C69.9338 9.58376 70.1465 9.40489 70.312 9.20871V4.59277H72.1501V11.4071H70.312V11.4128Z" fill="white"/>
<path d="M76.0524 11.5796C75.4081 11.5796 74.9176 11.4238 74.5807 11.1064C74.2438 10.7891 74.0725 10.3275 74.0725 9.7159V6.16162H72.9141V4.5922H74.0725V2.72852H75.9223V4.5922H77.3408V6.16162H75.9223V9.23699C75.9223 9.45625 75.9755 9.62935 76.0878 9.77359C76.2001 9.91207 76.3538 9.98708 76.5547 9.98708C76.6907 9.98708 76.8148 9.964 76.9389 9.92361C77.0571 9.88322 77.1457 9.83706 77.193 9.7909L77.5831 11.1468C77.4472 11.268 77.258 11.3719 77.0039 11.4584C76.7557 11.545 76.4365 11.5854 76.0524 11.5854V11.5796Z" fill="white"/>
<path d="M81.62 11.5804C81.0881 11.5804 80.5975 11.4938 80.1365 11.3265C79.6815 11.1592 79.2855 10.9169 78.9486 10.6053C78.6176 10.2937 78.3576 9.91866 78.1685 9.47438C77.9793 9.03009 77.8848 8.53965 77.8848 7.99151C77.8848 7.50106 77.9734 7.03947 78.1507 6.60095C78.328 6.16244 78.5763 5.78739 78.8954 5.46428C79.2146 5.14693 79.5928 4.89306 80.0361 4.70265C80.4793 4.51224 80.964 4.41992 81.4959 4.41992C82.0278 4.41992 82.4888 4.51224 82.9202 4.69688C83.3517 4.88152 83.7181 5.13539 84.0254 5.46428C84.3328 5.79316 84.5751 6.19129 84.7406 6.64711C84.906 7.10294 84.9947 7.61646 84.9947 8.17037V8.5685H79.8056C79.8647 9.00124 80.0656 9.37052 80.4084 9.68209C80.7512 9.99367 81.2181 10.1495 81.815 10.1495C81.9569 10.1495 82.1164 10.1321 82.2938 10.0975C82.4651 10.0629 82.6365 10.0225 82.8079 9.96482C82.9793 9.90712 83.133 9.83788 83.2867 9.75133C83.4344 9.66478 83.5703 9.57246 83.6826 9.46861L84.4923 10.6226C84.1436 10.9342 83.7181 11.1707 83.2039 11.3265C82.6956 11.4881 82.1637 11.5689 81.6141 11.5689L81.62 11.5804ZM83.2216 7.36258C83.2098 7.20103 83.1744 7.0337 83.1034 6.85483C83.0384 6.67596 82.9321 6.5144 82.802 6.37016C82.6661 6.22591 82.4888 6.10474 82.276 6.00665C82.0573 5.90856 81.8032 5.85663 81.5018 5.85663C81.2004 5.85663 80.964 5.90279 80.7571 5.99511C80.5503 6.08743 80.3789 6.2086 80.2429 6.35285C80.107 6.4971 80.0006 6.65865 79.9238 6.83752C79.8469 7.01639 79.7997 7.18949 79.776 7.35681H83.2157L83.2216 7.36258Z" fill="white"/>
</svg>
